Coordinates
version=1
nRows=7
nColumns=40
inDegrees=yes

Units are S.I. units (second, meters, Newtons, ...)
Angles are in degrees.

endheader
time	pelvis_tilt	pelvis_list	pelvis_rotation	pelvis_tx	pelvis_ty	pelvis_tz	hip_flexion_r	hip_adduction_r	hip_rotation_r	knee_angle_r	knee_angle_r_beta	ankle_angle_r	subtalar_angle_r	mtp_angle_r	hip_flexion_l	hip_adduction_l	hip_rotation_l	knee_angle_l	knee_angle_l_beta	ankle_angle_l	subtalar_angle_l	mtp_angle_l	lumbar_extension	lumbar_bending	lumbar_rotation	arm_flex_r	arm_add_r	arm_rot_r	elbow_flex_r	pro_sup_r	wrist_flex_r	wrist_dev_r	arm_flex_l	arm_add_l	arm_rot_l	elbow_flex_l	pro_sup_l	wrist_flex_l	wrist_dev_l
     45.73000000	     -3.83127680	     -3.62362889	      1.68670922	      1.07314907	      0.93130486	      0.40221179	     33.31944500	     -8.92015634	     -5.14080129	     72.24672420	     72.24672420	     -1.29605798	    -19.22018427	     13.74736744	     15.75600037	     -3.36017835	     -3.73590112	     22.83198349	     22.83198349	     13.01625982	    -12.73799168	      2.94778561	    -11.69992141	      4.61250726	      3.53971524	     11.03058409	    -13.47550237	     -3.91793764	     44.05011807	     45.82708149	      0.00000000	      0.00000000	     10.13940581	    -12.31119866	     -6.38145920	     53.45587958	     46.18558285	      0.00000000	      0.00000000
     45.74157143	     -3.91153097	     -3.85336872	      1.32858561	      1.07190502	      0.93188066	      0.40236659	     34.64963161	     -8.53913914	     -5.55431325	     70.96135913	     70.96135913	     -0.52106493	    -19.26531877	     14.00555529	     15.05758604	     -3.66765089	     -4.00856762	     22.42278329	     22.42278329	     13.32056661	    -12.63036615	      2.75536002	    -11.88155266	      4.84078195	      3.90180741	      9.29583098	    -13.70243811	     -3.80182786	     41.74022036	     45.89601279	      0.00000000	      0.00000000	     11.83579285	    -12.68891963	     -6.42579602	     55.12820158	     46.24066390	      0.00000000	      0.00000000
     45.75314286	     -3.93945805	     -4.12186773	      0.97732149	      1.07079969	      0.93252733	      0.40264215	     35.76224822	     -8.07071456	     -6.03098990	     69.44044437	     69.44044437	      0.30765657	    -19.26285259	     14.84854698	     14.22662928	     -4.05390140	     -4.45104409	     21.86205200	     21.86205200	     13.43315563	    -12.32538939	      2.09655349	    -12.02544818	      5.06329094	      3.39702126	      9.24755703	    -13.27842194	     -3.94635528	     36.37825588	     46.10136353	      0.00000000	      0.00000000	     12.41811790	    -13.96052443	     -5.49076049	     58.18272713	     46.28064413	      0.00000000	      0.00000000
     45.76471429	     -3.99032022	     -4.28282488	      0.63603427	      1.06962149	      0.93305006	      0.40278767	     36.74967709	     -7.60995060	     -6.31971349	     67.64145422	     67.64145422	      0.84816972	    -19.23992375	     14.77885485	     13.41356445	     -4.25301588	     -4.71228100	     21.29178217	     21.29178217	     13.72885543	    -12.15930854	      1.98616007	    -12.28707926	      5.22798457	      3.83127152	      7.54256193	    -13.49549493	     -3.90927335	     34.32654705	     46.16624487	      0.00000000	      0.00000000	     14.12887032	    -14.32089000	     -5.76043701	     60.06055839	     46.36091107	      0.00000000	      0.00000000
     45.77628571	     -4.06052261	     -4.49755850	      0.28967649	      1.06847022	      0.93349241	      0.40306372	     37.58805731	     -7.04222543	     -6.62191175	     65.52064026	     65.52064026	      1.14317191	    -19.15951896	     14.50337564	     12.64516817	     -4.53737157	     -5.06598485	     20.75182784	     20.75182784	     13.98799531	    -11.88413526	      1.73408370	    -12.48886911	      5.43673187	      4.05281433	      6.27449375	    -13.56432449	     -3.98661565	     31.64621347	     46.26891936	      0.00000000	      0.00000000	     15.48243056	    -14.86514296	     -5.69405085	     62.28234125	     46.42420362	      0.00000000	      0.00000000
     45.78785714	     -4.18392972	     -4.73835089	     -0.01840263	      1.06732634	      0.93381751	      0.40334518	     38.24857643	     -6.42951894	     -6.94087739	     62.96830363	     62.96830363	      0.94782816	    -19.04785520	     12.86280091	     11.93833596	     -4.83591235	     -5.38113773	     20.18068442	     20.18068442	     14.07632785	    -11.68967652	      1.19923785	    -12.58386626	      5.68668790	      3.38283821	      6.38161942	    -13.14466583	     -4.93693279	     27.04539132	     46.52659788	      0.00000000	      0.00000000	     15.86316676	    -16.12274151	     -5.54743973	     65.34871240	     46.56001671	      0.00000000	      0.00000000
     45.79942857	     -4.30315496	     -4.96523979	     -0.34205665	      1.06621835	      0.93407078	      0.40372821	     38.78228923	     -5.70526040	     -7.07149655	     60.14690662	     60.14690662	      1.05516036	    -18.75969499	     12.40342176	     11.24087065	     -5.10877645	     -5.65955273	     19.65649932	     19.65649932	     14.34374984	    -11.51932622	      1.13153433	    -12.73516609	      5.93418939	      3.67895056	      4.73804688	    -13.36380166	     -5.13408759	     25.79880698	     46.58173658	      0.00000000	      0.00000000	     17.32957301	    -16.38808581	     -5.86145231	     67.06586537	     46.63728939	      0.00000000	      0.00000000
